<?xml version="1.0" standalone="no"?><!DOCTYPE svg PUBLIC "-//W3C//DTD SVG 1.1//EN" "http://www.w3.org/Graphics/SVG/1.1/DTD/svg11.dtd"><svg t="1532339466647" class="icon" style="" viewBox="0 0 1024 1024" version="1.1" xmlns="http://www.w3.org/2000/svg" p-id="1127" xmlns:xlink="http://www.w3.org/1999/xlink" width="200" height="200"><defs><style type="text/css"></style></defs><path d="M780.038686 382.950855l-29.79356 0 0-68.295456c0-146.82295-99.726306-249.364371-238.247172-249.364371-138.516774 0-238.243079 102.540398-238.243079 249.364371l0 68.295456-29.767977 0c-21.927405 0-39.720653 17.925255-39.720653 39.85266l0 496.199129c0 21.928429 17.792225 39.70735 39.720653 39.70735l536.051789 0c21.928429 0 39.695071-17.778922 39.695071-39.70735L819.733757 422.802492C819.732733 400.875087 801.967114 382.950855 780.038686 382.950855zM353.169575 314.654376c0-101.653191 65.612347-169.948647 158.827355-169.948647 93.219101 0 158.832472 68.295456 158.832472 169.948647l0 68.295456L353.169575 382.949832 353.169575 314.654376zM740.318032 879.29427 283.681968 879.29427 283.681968 462.365556l456.636065 0L740.318032 879.29427z" p-id="1128" fill="#515151"></path></svg>